<svg id="Capa_1" enable-background="new 0 0 512 512" height="512" viewBox="0 0 512 512" width="512" xmlns="http://www.w3.org/2000/svg"><g><path d="m443.973 109.08 57.525 99.715c-6.046 22.563-9.505 35.473-15.551 58.036l-352.487 203.669c-22.594-6.054-35.482-9.507-58.076-15.561l-57.525-99.715c6.046-22.563 9.505-35.473 15.551-58.036l352.487-203.67c22.594 6.054 35.482 9.508 58.076 15.562z" fill="#98eaf9"/><path d="m75.386 454.942-57.5-99.671 15.556-58.102 58.457-33.777 29.821 11.66-4.816 31.684 29.821 11.66-4.821 31.676 29.821 11.66-4.821 31.676 29.816 11.651-4.821 31.676-58.457 33.777c-22.58-6.057-35.476-9.515-58.056-15.57z" fill="#ff7d95"/><path d="m10 199.158v-115.158l42.5-42.5h407c16.529 16.529 25.971 25.972 42.5 42.5v115.158c-16.529 16.529-25.971 25.971-42.5 42.5h-407c-16.529-16.529-25.971-25.971-42.5-42.5z" fill="#98eaf9"/><path d="m502 84.034v115.091l-42.5 42.534h-67.5l-20-25.02 20-25.03-20-25.02 20-25.02-20-25.02 20-25.02-20-25.01 20-25.02h67.5c16.53 16.544 25.97 25.992 42.5 42.535z" fill="#ff7d95"/><ellipse cx="90" cy="141.579" fill="#ff7d95" rx="40" ry="40.032"/><g><circle cx="404.759" cy="313.737" r="10"/><path d="m512 84.001c0-2.652-1.054-5.196-2.929-7.071l-42.5-42.501c-1.875-1.876-4.419-2.929-7.071-2.929h-407c-2.652 0-5.196 1.054-7.071 2.929l-42.5 42.501c-1.875 1.875-2.929 4.419-2.929 7.071v115.156c0 2.652 1.054 5.196 2.929 7.071l42.5 42.501c1.875 1.875 4.419 2.929 7.071 2.929h39.716l-63.806 36.868c-2.28 1.32-3.98 3.53-4.66 6.07l-15.55 58.041c-.68 2.54-.32 5.3 1 7.58l57.52 99.722c1.34 2.31 3.5 3.97 6.08 4.66 22.59 6.05 35.48 9.5 58.07 15.56.86.23 1.73.34 2.61.34 1.73 0 3.46-.46 4.98-1.34l232.34-134.252c2.31-1.33 3.97-3.49 4.66-6.07.689-2.58.33-5.27-1-7.591-1.78-3.08-5.11-4.99-8.67-4.99-1.75 0-3.48.46-5 1.34l-155.871 90.064 1.69-11.085c.265-1.736.064-3.453-.52-5.012-.97-2.598-3.005-4.755-5.73-5.82l-22.365-8.743 3.617-23.758c0-6.235-2.705-9.441-6.245-10.825l-22.373-8.751 3.618-23.758c0-4.901-2.977-9.548-6.245-10.826l-22.374-8.752 3.617-23.763c.264-1.736.063-3.454-.521-5.013-.97-2.596-3.004-4.752-5.727-5.817l-10.455-4.088 17.292-9.992h120.019l-69.901 40.389c-4.782 2.763-6.418 8.88-3.656 13.662 1.853 3.207 5.213 4.999 8.668 4.999 1.698 0 3.418-.433 4.994-1.343l99.872-57.707h40.022l-77.934 45.031c-4.782 2.763-6.418 8.88-3.656 13.662 1.853 3.207 5.213 4.999 8.668 4.999 1.697 0 3.418-.433 4.993-1.343l107.906-62.349h87.307c2.652 0 5.196-1.054 7.071-2.929l18.952-18.952c-1.183 4.414-8.164 30.468-8.164 30.468l-39.5 22.821c-2.319 1.34-3.97 3.5-4.659 6.08-.69 2.58-.341 5.27 1 7.59 1.779 3.08 5.1 4.99 8.67 4.99 1.75 0 3.47-.46 4.989-1.34l43.091-24.891c2.279-1.32 3.97-3.53 4.649-6.08 4.25-15.86 7.23-26.95 10.72-39.981l4.841-18.05c.618-2.31.84-10.346.84-12.227zm-376.365 240.799-3.619 23.758c-.221 1.447-.118 2.881.261 4.221.829 2.945 2.991 5.436 5.986 6.607l22.373 8.749-3.62 23.757c-.221 1.448-.015 3.117.518 5.007.753 2.67 3.005 4.758 5.731 5.823l22.365 8.745-2.895 19.013-50.695 29.29-50.065-13.419-53.359-92.493 13.414-50.099 50.71-29.301 17.89 7.001-3.615 23.763c-.22 1.447.047 3.839.518 5.005.765 1.893 3.004 4.757 5.729 5.823zm264.177-126.947c1.459-1.826 2.214-4.591 2.188-6.245-.025-1.654-.912-4.647-2.189-6.244l-15.007-18.775 15.007-18.775c1.095-1.369 2.043-3.964 2.155-5.417.142-1.843-.513-5.019-2.155-7.073l-15.007-18.774 15.007-18.774c1.095-1.37 2.043-3.964 2.155-5.418.142-1.844-.513-5.02-2.156-7.075l-15.005-18.766 12.323-15.017h58.23l36.642 36.643v106.872l-36.643 36.643h-58.548l-12.006-15.022zm-379.812-2.838v-106.872l36.642-36.643h314.56l-7.012 8.771c-1.278 1.598-1.996 3.491-2.155 5.421-.205 2.479.513 5.02 2.156 7.074l15.006 18.765-15.007 18.774c-1.46 1.826-2.189 4.036-2.189 6.245 0 2.21.729 4.419 2.189 6.245l15.007 18.774-15.008 18.775c-1.459 1.826-2.189 4.035-2.188 6.245 0 2.21.729 4.419 2.188 6.245l15.01 18.776-15.01 18.78c-1.46 1.826-2.189 4.036-2.188 6.246 0 2.21.729 4.42 2.189 6.246l7.015 8.775h-81.873c-.036.001-.072-.001-.108 0h-232.582z"/><path d="m90 91.547c-27.57 0-50 22.444-50 50.032s22.43 50.032 50 50.032 50-22.444 50-50.032-22.43-50.032-50-50.032zm0 80.064c-16.542 0-30-13.472-30-30.031s13.458-30.031 30-30.031 30 13.472 30 30.031-13.458 30.031-30 30.031z"/><path d="m328 171.595c5.522 0 10-4.477 10-10s-4.478-10-10-10h-163c-5.523 0-10 4.477-10 10s4.477 10 10 10z"/><path d="m165 131.563h103c5.522 0 10-4.477 10-10s-4.478-10-10-10h-103c-5.523 0-10 4.477-10 10s4.477 10 10 10z"/></g></g></svg>